PathFileType	4	(X/Y/Z)	markers
DataRate	CameraRate	NumFrames	NumMarkers	Units	OrigDataRate	OrigDataStartFrame	OrigNumFrames
200	200	5	39	mm	200	193	257
Frame#	Time	RASI			LASI			RPSI			LPSI			RTH1			RTH2			RTH3			RTH4			RLFC			RTB1			RTB2			RTB3			RTB4			RLMAL			RCAL			RTOE			RMT5			LTH1			LTH2			LTH3			LTH4			LLFC			LTB1			LTB2			LTB3			LTB4			LLMAL			LCAL			LTOE			LMT5			C7			T10			CLAV			RACR			LACR			RLEL			RFAradius			LLEL			LFAradius		
		X1	Y1	Z1	X2	Y2	Z2	X3	Y3	Z3	X4	Y4	Z4	X5	Y5	Z5	X6	Y6	Z6	X7	Y7	Z7	X8	Y8	Z8	X9	Y9	Z9	X10	Y10	Z10	X11	Y11	Z11	X12	Y12	Z12	X13	Y13	Z13	X14	Y14	Z14	X15	Y15	Z15	X16	Y16	Z16	X17	Y17	Z17	X18	Y18	Z18	X19	Y19	Z19	X20	Y20	Z20	X21	Y21	Z21	X22	Y22	Z22	X23	Y23	Z23	X24	Y24	Z24	X25	Y25	Z25	X26	Y26	Z26	X27	Y27	Z27	X28	Y28	Z28	X29	Y29	Z29	X30	Y30	Z30	X31	Y31	Z31	X32	Y32	Z32	X33	Y33	Z33	X34	Y34	Z34	X35	Y35	Z35	X36	Y36	Z36	X37	Y37	Z37	X38	Y38	Z38	X39	Y39	Z39
193	0.960000	2694.171397	918.581777	751.745685	2665.567260	952.004252	514.444686	2515.534952	949.960437	698.297723	2502.614953	960.476250	606.891110	2713.911280	660.996215	790.905776	2764.859997	671.026280	754.581708	2784.553393	570.138726	748.879527	2747.846693	559.579350	781.692639	2756.284677	430.525433	758.069897	2644.261863	421.748626	785.960014	2649.839898	376.542164	763.112711	2544.378604	360.264674	748.832952	2542.073412	417.961240	781.354762	2340.689003	398.687198	757.156391	2291.166875	446.991553	699.649036	2320.530106	223.782356	692.040251	2309.895487	266.557919	786.294817	2725.116688	698.579202	461.320690	2756.323520	722.407987	492.269170	2798.788777	632.989012	522.374956	2754.881976	599.339830	485.178217	2771.881691	472.189751	514.817259	2741.782501	378.046936	497.825865	2780.250936	362.215020	527.080914	2733.906023	275.301766	550.919327	2683.123060	289.369974	511.620864	2596.545575	104.357277	562.327492	2507.587849	92.334049	612.533750	2725.604864	60.467078	631.713743	2683.742666	56.993277	536.186589	2568.837807	1458.557044	635.512134	2489.968778	1271.179264	662.132967	2685.975835	1375.829066	653.992395	2632.454727	1435.064439	806.653168	2602.669419	1411.677827	459.859904	2518.173936	1120.666982	910.568539	2708.103576	984.112006	808.560233	2501.532004	1077.252393	382.104733	2744.999600	1076.182460	440.662575
194	0.965000	2709.681361	919.763361	752.445106	2680.418506	951.979154	515.208436	2530.172703	950.158530	699.072987	2516.681727	961.633213	608.532829	2732.944848	663.651138	792.187919	2783.358104	674.525612	754.263785	2805.878258	574.192134	748.767134	2768.997847	562.591906	781.685048	2780.972868	434.428214	757.178065	2669.955370	423.643319	786.060302	2676.395622	378.603911	762.631938	2570.955130	359.339625	749.647420	2567.955155	417.157732	781.345204	2366.813333	392.625237	757.640625	2315.262796	440.142111	701.464898	2350.199873	218.171398	692.763227	2339.626424	258.987089	787.298856	2737.586619	697.008471	462.169116	2769.024842	720.275526	493.031916	2809.781339	630.270017	522.970604	2766.004692	597.041974	486.475118	2781.232973	470.053649	515.860381	2748.624919	375.092891	499.003229	2786.313873	358.466334	528.880382	2737.917749	272.504628	552.609239	2687.996282	287.340418	512.758179	2598.023995	103.077064	562.033005	2508.243722	92.963037	612.887007	2725.725699	60.398192	631.682469	2683.857712	57.021110	536.234179	2583.433106	1459.021587	635.217912	2504.131477	1271.544287	661.590462	2700.229219	1375.857723	655.062717	2644.819450	1434.764766	806.936599	2618.898537	1412.076756	459.665490	2525.588034	1122.484167	911.149277	2715.158663	983.352087	813.118398	2523.436129	1076.128648	382.252362	2765.337003	1081.116393	443.542236
195	0.970000	2723.922037	921.025122	753.196714	2695.410387	951.940414	516.089861	2543.698882	952.170563	701.353775	2531.717342	962.034176	608.834073	2751.136579	665.970387	792.132109	2802.031064	679.211206	755.067842	2827.203459	579.073122	749.774823	2790.037753	565.996716	781.348674	2805.789058	439.053460	756.587072	2695.155152	424.189653	785.456155	2702.838248	380.046008	762.321856	2597.498111	359.401357	750.445283	2593.652141	416.203403	781.489883	2392.143150	386.746672	758.922671	2339.384533	433.004451	703.282745	2380.479181	211.918159	693.365738	2369.438188	252.954656	788.236666	2749.770231	695.460320	463.256059	2781.547150	718.078159	493.938850	2820.487582	627.573601	523.804769	2776.122899	594.548656	487.678338	2789.827080	467.947458	517.022296	2754.448909	373.073254	500.069772	2791.597487	355.891235	530.425551	2741.611158	270.502377	553.466429	2692.503708	286.595537	512.880834	2598.465183	102.613434	562.611197	2508.698958	94.031950	613.219487	2725.845429	60.316321	631.658452	2684.011782	57.062466	536.346859	2598.091088	1459.328452	635.018113	2518.617779	1271.968513	660.665013	2714.342152	1376.549611	656.119044	2657.943540	1436.137511	807.702734	2634.857887	1413.250088	459.956676	2532.707509	1124.844659	911.938302	2722.668590	983.137710	817.571465	2542.965111	1075.036224	382.828039	2785.924502	1086.857607	446.758997
196	0.975000	2737.756539	922.100017	753.973484	2710.170505	951.635322	516.669191	2559.014471	951.583481	700.627780	2546.693463	962.986419	609.791650	2769.580047	668.837016	792.412621	2820.549635	682.944392	755.176506	2847.794239	585.013165	750.880734	2811.024193	570.379889	781.200398	2829.591110	445.291002	758.150022	2719.273586	426.377606	784.351431	2729.844859	382.917678	762.241245	2624.027268	359.445250	750.803850	2619.406233	416.143016	781.309947	2417.794813	380.515475	760.122446	2363.228199	425.304034	704.330001	2411.687327	205.585897	693.667300	2402.405132	247.728399	792.277364	2761.643069	693.822852	464.823760	2793.456078	715.760333	495.654325	2830.883051	624.787869	525.119691	2786.484011	591.987802	489.051639	2797.884835	466.090339	518.146642	2759.663649	370.804800	500.961134	2796.535092	352.999614	530.984416	2745.136759	268.828545	554.226535	2695.828864	285.547136	514.031813	2599.362498	102.601826	562.911337	2509.337881	94.978255	613.697807	2725.970617	60.288958	631.674967	2684.185850	57.190969	536.481941	2612.482248	1460.777096	635.035562	2532.932955	1272.989052	660.003437	2728.657932	1377.218250	657.599807	2669.772906	1436.114846	807.983045	2651.417702	1414.691734	460.465825	2540.202692	1128.017347	912.112599	2730.204080	982.776229	821.674288	2564.972426	1076.034596	383.582330	2805.901541	1093.148869	450.044417
197	0.980000	2753.076507	924.102968	754.497597	2725.145331	952.322624	517.260261	2573.607959	952.870493	701.468988	2561.487362	964.649837	610.199156	2788.213147	672.781134	793.492761	2838.458440	688.334158	755.273743	2867.808571	591.468517	751.865892	2831.314496	574.406369	780.976992	2854.181150	449.676739	756.018496	2744.498807	429.312167	784.771934	2754.637913	385.358987	761.185537	2650.373234	359.205967	750.831851	2642.943932	415.196092	781.711554	2443.652105	373.673572	760.489877	2387.012151	416.829347	705.609250	2443.085370	199.285387	694.400242	2432.364336	239.444325	792.777158	2773.214695	692.244124	466.590924	2804.951034	713.571002	497.684161	2840.977308	622.060877	526.634077	2797.319713	589.719239	490.990273	2803.738684	463.526035	519.117606	2764.101428	369.047630	501.636994	2800.655937	350.464018	532.012449	2748.069113	266.544761	555.674006	2699.206474	284.349339	515.165784	2600.432988	102.915421	563.214638	2509.562929	95.466870	613.542179	2726.175347	60.227548	631.673962	2684.373542	57.283212	536.649025	2628.066456	1462.254195	635.044359	2547.103819	1273.940891	658.789588	2742.647206	1378.482701	658.084964	2681.337875	1437.917264	808.685611	2666.829509	1416.355125	460.951556	2547.428285	1131.343091	912.205798	2737.183592	984.219772	825.299678	2586.324831	1076.515857	384.215646	2825.416942	1099.683124	452.946945
